<?xml version="1.0" standalone="yes"?>

<svg version="1.1" viewBox="0.0 0.0 964.3385826771654 265.90288713910763" fill="none" stroke="none" stroke-linecap="square" stroke-miterlimit="10" xmlns="http://www.w3.org/2000/svg" xmlns:xlink="http://www.w3.org/1999/xlink"><clipPath id="p.0"><path d="m0 0l964.33856 0l0 265.9029l-964.33856 0l0 -265.9029z" clip-rule="nonzero"></path></clipPath><g clip-path="url(#p.0)"><path fill="#000000" fill-opacity="0.0" d="m0 0l964.33856 0l0 265.9029l-964.33856 0z" fill-rule="nonzero"></path><path fill="#3c78d8" d="m-4.119743E-5 -9.509837E-7l0 202.80824l23.196299 0l0 -58.241653l16.366278 -16.877632l45.232777 75.119286l28.608772 0l-57.60414 -92.41194l52.320534 -54.506443l-30.026314 0l-54.897903 59.76341l0 -115.65327z" fill-rule="evenodd"></path><path fill="#3c78d8" d="m131.31677 55.88986l0 91.02852c0 10.606171 0.47251892 18.353271 1.4175568 23.241333c1.374588 7.285965 3.7514954 13.449829 7.130707 18.491608c3.4078522 5.011017 8.605545 9.176636 15.593079 12.496826c7.016159 3.3201904 14.562119 4.9802856 22.637863 4.9802856c18.299301 0 32.775513 -8.300476 43.42862 -24.901413l0 21.581223l20.747803 0l0 -146.91838l-23.196304 0l0 78.716156c0 12.542938 -1.274353 22.119217 -3.8230896 28.728867c-2.5200806 6.578888 -6.830017 11.789734 -12.929779 15.632553c-6.099777 3.8120575 -12.629105 5.718109 -19.587997 5.718109c-6.9588776 0 -12.800919 -1.8599243 -17.526093 -5.579773c-4.7251587 -3.7505798 -7.8180084 -8.899948 -9.278519 -15.448105c-0.9450226 -4.5191345 -1.4175415 -13.280746 -1.4175415 -26.28482l0 -81.48299z" fill-rule="evenodd"></path><path fill="#3c78d8" d="m278.4844 -9.509837E-7l0 28.913317l23.19629 0l0 -28.913317zm0 55.88986l0 154.38881c0 13.46521 -1.1598206 21.873291 -3.4794617 25.224213c-2.3196106 3.3816833 -5.8420105 5.072525 -10.5672 5.072525c-2.663269 0 -6.3145447 -0.64559937 -10.953796 -1.9367828l-4.381531 21.166214c5.8420258 1.7523193 11.898834 2.628479 18.17044 2.628479c12.972748 0 22.251251 -4.611389 27.83554 -13.834122c4.381531 -7.1015167 6.572296 -19.690567 6.572296 -37.767166l0 -154.94217z" fill-rule="evenodd"></path><path fill="#3c78d8" d="m337.37723 -9.509837E-7l0 28.636635l23.19629 0l0 -28.636635zm0 55.88986l0 146.91838l23.19629 0l0 -146.91838z" fill-rule="evenodd"></path><path fill="#3c78d8" d="m402.45572 174.44829l0 28.359955l26.418 0l0 -28.359955z" fill-rule="evenodd"></path><path fill="#3c78d8" d="m521.27234 73.18251c10.481262 0 19.43042 4.565262 26.847534 13.6957855c7.4457397 9.130516 11.168579 22.687958 11.168579 40.672318c0 18.814407 -3.6082764 32.63315 -10.824951 41.456253c-7.216614 8.792358 -16.15149 13.188538 -26.804565 13.188538c-10.739044 0 -19.67392 -4.4269257 -26.804626 -13.280762c-7.130707 -8.853836 -10.696075 -22.918533 -10.696075 -42.194077c0 -17.707672 3.608307 -31.04992 10.824951 -40.026726c7.216614 -9.007553 15.979645 -13.51133 26.289154 -13.51133zm-1.675293 -20.612843c-12.113647 0 -22.666534 3.2279625 -31.65866 9.6838875c-8.9635315 6.455925 -15.807861 15.6171875 -20.53302 27.483788c-4.725189 11.835869 -7.0877686 24.763084 -7.0877686 38.781654c0 20.382278 5.154724 37.85939 15.464203 52.431335c10.309448 14.571945 24.871582 21.85791 43.68634 21.85791c15.120544 0 27.749634 -6.4098053 37.88733 -19.229431l0 0c0.085876465 16.23204 -0.47253418 26.884308 -1.675293 31.956833c-2.0618896 8.300461 -6.013855 14.756393 -11.855896 19.367767c-5.842041 4.611374 -14.132568 6.9170685 -24.871582 6.9170685c-9.96582 0 -17.826813 -2.3056946 -23.582916 -6.9170685c-4.295624 -3.4124146 -6.915924 -8.853836 -7.860962 -16.324265l-22.551971 -3.596878l0 0c-0.34362793 15.863129 4.5104065 27.729736 14.562134 35.599808c10.051727 7.900833 23.239258 11.851242 39.56256 11.851242c13.745972 0 25.31543 -2.7668152 34.708557 -8.300476c9.421692 -5.5336456 16.294678 -13.080933 20.618896 -22.641846c4.3529053 -9.530167 6.529358 -25.731476 6.529358 -48.60388l0 -126.99725l-21.39215 0l0 17.707676c-10.481262 -14.018578 -23.797668 -21.027866 -39.949158 -21.027866z" fill-rule="evenodd"></path><path fill="#3c78d8" d="m615.47504 55.88986l0 91.02852c0 10.606171 0.47253418 18.353271 1.4175415 23.241333c1.3746338 7.285965 3.7515259 13.449829 7.1307373 18.491608c3.407837 5.011017 8.60553 9.176636 15.593079 12.496826c7.0161133 3.3201904 14.562134 4.9802856 22.637878 4.9802856c18.299255 0 32.775513 -8.300476 43.42859 -24.901413l0 21.581223l20.747803 0l0 -146.91838l-23.19629 0l0 78.716156c0 12.542938 -1.274353 22.119217 -3.82312 28.728867c-2.5200195 6.578888 -6.830017 11.789734 -12.929749 15.632553c-6.0997925 3.8120575 -12.629089 5.718109 -19.588013 5.718109c-6.9588623 0 -12.800903 -1.8599243 -17.526062 -5.579773c-4.7251587 -3.7505798 -7.817993 -8.899948 -9.278503 -15.448105c-0.94506836 -4.5191345 -1.4176025 -13.280746 -1.4176025 -26.28482l0 -81.48299z" fill-rule="evenodd"></path><path fill="#3c78d8" d="m813.0302 52.569668c-5.4124756 0 -10.3810425 1.6600952 -14.905823 4.9802856c-4.4960327 3.3201866 -9.407349 10.191135 -14.733948 20.612843l0 -22.272938l-20.876648 0l0 146.91838l23.19629 0l0 -76.917725c0 -10.513931 1.2886963 -20.197815 3.8660889 -29.051659c1.7182007 -5.8103333 4.5962524 -10.344841 8.634155 -13.603554c4.037903 -3.289444 8.591248 -4.934166 13.660034 -4.934166c5.670227 0 11.340393 1.7984314 17.01062 5.395302l7.989868 -23.102982c-8.075745 -5.3491974 -16.022644 -8.023792 -23.840637 -8.023792z" fill-rule="evenodd"></path><path fill="#3c78d8" d="m850.1443 55.88986l0 91.02852c0 10.606171 0.47247314 18.353271 1.4175415 23.241333c1.3745728 7.285965 3.7515259 13.449829 7.1306763 18.491608c3.407898 5.011017 8.605591 9.176636 15.593079 12.496826c7.0161743 3.3201904 14.562134 4.9802856 22.637878 4.9802856c18.299316 0 32.775513 -8.300476 43.42865 -24.901413l0 21.581223l20.747742 0l0 -146.91838l-23.19629 0l0 78.716156c0 12.542938 -1.274292 22.119217 -3.823059 28.728867c-2.5200806 6.578888 -6.830017 11.789734 -12.92981 15.632553c-6.0997314 3.8120575 -12.629089 5.718109 -19.587952 5.718109c-6.9589233 0 -12.800964 -1.8599243 -17.526123 -5.579773c-4.7251587 -3.7505798 -7.817993 -8.899948 -9.278503 -15.448105c-0.94506836 -4.5191345 -1.4175415 -13.280746 -1.4175415 -26.28482l0 -81.48299z" fill-rule="evenodd"></path><path stroke="#000000" stroke-width="2.0" stroke-linejoin="round" stroke-linecap="butt" d="m-4.119743E-5 -9.509837E-7l0 202.80824l23.196299 0l0 -58.241653l16.366278 -16.877632l45.232777 75.119286l28.608772 0l-57.60414 -92.41194l52.320534 -54.506443l-30.026314 0l-54.897903 59.76341l0 -115.65327z" fill-rule="evenodd"></path><path stroke="#000000" stroke-width="2.0" stroke-linejoin="round" stroke-linecap="butt" d="m131.31677 55.88986l0 91.02852c0 10.606171 0.47251892 18.353271 1.4175568 23.241333c1.374588 7.285965 3.7514954 13.449829 7.130707 18.491608c3.4078522 5.011017 8.605545 9.176636 15.593079 12.496826c7.016159 3.3201904 14.562119 4.9802856 22.637863 4.9802856c18.299301 0 32.775513 -8.300476 43.42862 -24.901413l0 21.581223l20.747803 0l0 -146.91838l-23.196304 0l0 78.716156c0 12.542938 -1.274353 22.119217 -3.8230896 28.728867c-2.5200806 6.578888 -6.830017 11.789734 -12.929779 15.632553c-6.099777 3.8120575 -12.629105 5.718109 -19.587997 5.718109c-6.9588776 0 -12.800919 -1.8599243 -17.526093 -5.579773c-4.7251587 -3.7505798 -7.8180084 -8.899948 -9.278519 -15.448105c-0.9450226 -4.5191345 -1.4175415 -13.280746 -1.4175415 -26.28482l0 -81.48299z" fill-rule="evenodd"></path><path stroke="#000000" stroke-width="2.0" stroke-linejoin="round" stroke-linecap="butt" d="m278.4844 -9.509837E-7l0 28.913317l23.19629 0l0 -28.913317zm0 55.88986l0 154.38881c0 13.46521 -1.1598206 21.873291 -3.4794617 25.224213c-2.3196106 3.3816833 -5.8420105 5.072525 -10.5672 5.072525c-2.663269 0 -6.3145447 -0.64559937 -10.953796 -1.9367828l-4.381531 21.166214c5.8420258 1.7523193 11.898834 2.628479 18.17044 2.628479c12.972748 0 22.251251 -4.611389 27.83554 -13.834122c4.381531 -7.1015167 6.572296 -19.690567 6.572296 -37.767166l0 -154.94217z" fill-rule="evenodd"></path><path stroke="#000000" stroke-width="2.0" stroke-linejoin="round" stroke-linecap="butt" d="m337.37723 -9.509837E-7l0 28.636635l23.19629 0l0 -28.636635zm0 55.88986l0 146.91838l23.19629 0l0 -146.91838z" fill-rule="evenodd"></path><path stroke="#000000" stroke-width="2.0" stroke-linejoin="round" stroke-linecap="butt" d="m402.45572 174.44829l0 28.359955l26.418 0l0 -28.359955z" fill-rule="evenodd"></path><path stroke="#000000" stroke-width="2.0" stroke-linejoin="round" stroke-linecap="butt" d="m521.27234 73.18251c10.481262 0 19.43042 4.565262 26.847534 13.6957855c7.4457397 9.130516 11.168579 22.687958 11.168579 40.672318c0 18.814407 -3.6082764 32.63315 -10.824951 41.456253c-7.216614 8.792358 -16.15149 13.188538 -26.804565 13.188538c-10.739044 0 -19.67392 -4.4269257 -26.804626 -13.280762c-7.130707 -8.853836 -10.696075 -22.918533 -10.696075 -42.194077c0 -17.707672 3.608307 -31.04992 10.824951 -40.026726c7.216614 -9.007553 15.979645 -13.51133 26.289154 -13.51133zm-1.675293 -20.612843c-12.113647 0 -22.666534 3.2279625 -31.65866 9.6838875c-8.9635315 6.455925 -15.807861 15.6171875 -20.53302 27.483788c-4.725189 11.835869 -7.0877686 24.763084 -7.0877686 38.781654c0 20.382278 5.154724 37.85939 15.464203 52.431335c10.309448 14.571945 24.871582 21.85791 43.68634 21.85791c15.120544 0 27.749634 -6.4098053 37.88733 -19.229431l0 0c0.085876465 16.23204 -0.47253418 26.884308 -1.675293 31.956833c-2.0618896 8.300461 -6.013855 14.756393 -11.855896 19.367767c-5.842041 4.611374 -14.132568 6.9170685 -24.871582 6.9170685c-9.96582 0 -17.826813 -2.3056946 -23.582916 -6.9170685c-4.295624 -3.4124146 -6.915924 -8.853836 -7.860962 -16.324265l-22.551971 -3.596878l0 0c-0.34362793 15.863129 4.5104065 27.729736 14.562134 35.599808c10.051727 7.900833 23.239258 11.851242 39.56256 11.851242c13.745972 0 25.31543 -2.7668152 34.708557 -8.300476c9.421692 -5.5336456 16.294678 -13.080933 20.618896 -22.641846c4.3529053 -9.530167 6.529358 -25.731476 6.529358 -48.60388l0 -126.99725l-21.39215 0l0 17.707676c-10.481262 -14.018578 -23.797668 -21.027866 -39.949158 -21.027866z" fill-rule="evenodd"></path><path stroke="#000000" stroke-width="2.0" stroke-linejoin="round" stroke-linecap="butt" d="m615.47504 55.88986l0 91.02852c0 10.606171 0.47253418 18.353271 1.4175415 23.241333c1.3746338 7.285965 3.7515259 13.449829 7.1307373 18.491608c3.407837 5.011017 8.60553 9.176636 15.593079 12.496826c7.0161133 3.3201904 14.562134 4.9802856 22.637878 4.9802856c18.299255 0 32.775513 -8.300476 43.42859 -24.901413l0 21.581223l20.747803 0l0 -146.91838l-23.19629 0l0 78.716156c0 12.542938 -1.274353 22.119217 -3.82312 28.728867c-2.5200195 6.578888 -6.830017 11.789734 -12.929749 15.632553c-6.0997925 3.8120575 -12.629089 5.718109 -19.588013 5.718109c-6.9588623 0 -12.800903 -1.8599243 -17.526062 -5.579773c-4.7251587 -3.7505798 -7.817993 -8.899948 -9.278503 -15.448105c-0.94506836 -4.5191345 -1.4176025 -13.280746 -1.4176025 -26.28482l0 -81.48299z" fill-rule="evenodd"></path><path stroke="#000000" stroke-width="2.0" stroke-linejoin="round" stroke-linecap="butt" d="m813.0302 52.569668c-5.4124756 0 -10.3810425 1.6600952 -14.905823 4.9802856c-4.4960327 3.3201866 -9.407349 10.191135 -14.733948 20.612843l0 -22.272938l-20.876648 0l0 146.91838l23.19629 0l0 -76.917725c0 -10.513931 1.2886963 -20.197815 3.8660889 -29.051659c1.7182007 -5.8103333 4.5962524 -10.344841 8.634155 -13.603554c4.037903 -3.289444 8.591248 -4.934166 13.660034 -4.934166c5.670227 0 11.340393 1.7984314 17.01062 5.395302l7.989868 -23.102982c-8.075745 -5.3491974 -16.022644 -8.023792 -23.840637 -8.023792z" fill-rule="evenodd"></path><path stroke="#000000" stroke-width="2.0" stroke-linejoin="round" stroke-linecap="butt" d="m850.1443 55.88986l0 91.02852c0 10.606171 0.47247314 18.353271 1.4175415 23.241333c1.3745728 7.285965 3.7515259 13.449829 7.1306763 18.491608c3.407898 5.011017 8.605591 9.176636 15.593079 12.496826c7.0161743 3.3201904 14.562134 4.9802856 22.637878 4.9802856c18.299316 0 32.775513 -8.300476 43.42865 -24.901413l0 21.581223l20.747742 0l0 -146.91838l-23.19629 0l0 78.716156c0 12.542938 -1.274292 22.119217 -3.823059 28.728867c-2.5200806 6.578888 -6.830017 11.789734 -12.92981 15.632553c-6.0997314 3.8120575 -12.629089 5.718109 -19.587952 5.718109c-6.9589233 0 -12.800964 -1.8599243 -17.526123 -5.579773c-4.7251587 -3.7505798 -7.817993 -8.899948 -9.278503 -15.448105c-0.94506836 -4.5191345 -1.4175415 -13.280746 -1.4175415 -26.28482l0 -81.48299z" fill-rule="evenodd"></path></g></svg>

